<svg width="18" height="20" viewBox="0 0 18 20" fill="none" xmlns="http://www.w3.org/2000/svg">
<path fill-rule="evenodd" clip-rule="evenodd" d="M0.599976 18.4C0.599976 18.0818 0.726404 17.7765 0.951447 17.5515C1.17649 17.3265 1.48172 17.2 1.79998 17.2H16.2C16.5182 17.2 16.8235 17.3265 17.0485 17.5515C17.2735 17.7765 17.4 18.0818 17.4 18.4C17.4 18.7183 17.2735 19.0235 17.0485 19.2486C16.8235 19.4736 16.5182 19.6 16.2 19.6H1.79998C1.48172 19.6 1.17649 19.4736 0.951447 19.2486C0.726404 19.0235 0.599976 18.7183 0.599976 18.4ZM4.55158 9.15162C4.77661 8.92666 5.08178 8.80028 5.39998 8.80028C5.71817 8.80028 6.02334 8.92666 6.24838 9.15162L7.79998 10.7032V1.60002C7.79998 1.28176 7.9264 0.97654 8.15145 0.751496C8.37649 0.526453 8.68172 0.400024 8.99998 0.400024C9.31824 0.400024 9.62346 0.526453 9.8485 0.751496C10.0735 0.97654 10.2 1.28176 10.2 1.60002V10.7032L11.7516 9.15162C11.8623 9.03701 11.9947 8.94559 12.1411 8.8827C12.2875 8.81981 12.445 8.78671 12.6043 8.78532C12.7636 8.78394 12.9216 8.8143 13.0691 8.87464C13.2166 8.93498 13.3506 9.02408 13.4633 9.13675C13.5759 9.24942 13.665 9.3834 13.7254 9.53088C13.7857 9.67835 13.8161 9.83637 13.8147 9.9957C13.8133 10.155 13.7802 10.3125 13.7173 10.4589C13.6544 10.6053 13.563 10.7377 13.4484 10.8484L9.84838 14.4484C9.62334 14.6734 9.31817 14.7998 8.99998 14.7998C8.68178 14.7998 8.37661 14.6734 8.15158 14.4484L4.55158 10.8484C4.32661 10.6234 4.20023 10.3182 4.20023 10C4.20023 9.68183 4.32661 9.37666 4.55158 9.15162Z" fill="#688EFF"/>
</svg>
